PathFileType	4	(X/Y/Z)	s08c0101.trc
DataRate	CameraRate	NumFrames	NumMarkers	Units	OrigDataRate	OrigDataStartFrame	OrigNumFrames
200	200	5	50	mm	200	250	2000
Frame#	Time	racr			lacr			c7			jug			rlel			rdr			llel			ldr			s2			lic			ric			lasi			rasi			rpsi			lpsi			rgt			lgt			rth1			rth2			rth3			rth4			rlfc			rmfc			rsh1			rsh2			rsh3			rsh4			rlmal			rmmal			rcal			rtoe			rmt5			lth1			lth2			lth4			lth3			llfc			lmfc			llmal			lmmal			lcal			lmt5			lsh1			lsh2			lsh3			lsh4			ltoe			SBIKE			LBIKE			RBIKE			
		X1	Y1	Z1	X2	Y2	Z2	X3	Y3	Z3	X4	Y4	Z4	X5	Y5	Z5	X6	Y6	Z6	X7	Y7	Z7	X8	Y8	Z8	X9	Y9	Z9	X10	Y10	Z10	X11	Y11	Z11	X12	Y12	Z12	X13	Y13	Z13	X14	Y14	Z14	X15	Y15	Z15	X16	Y16	Z16	X17	Y17	Z17	X18	Y18	Z18	X19	Y19	Z19	X20	Y20	Z20	X21	Y21	Z21	X22	Y22	Z22	X23	Y23	Z23	X24	Y24	Z24	X25	Y25	Z25	X26	Y26	Z26	X27	Y27	Z27	X28	Y28	Z28	X29	Y29	Z29	X30	Y30	Z30	X31	Y31	Z31	X32	Y32	Z32	X33	Y33	Z33	X34	Y34	Z34	X35	Y35	Z35	X36	Y36	Z36	X37	Y37	Z37	X38	Y38	Z38	X39	Y39	Z39	X40	Y40	Z40	X41	Y41	Z41	X42	Y42	Z42	X43	Y43	Z43	X44	Y44	Z44	X45	Y45	Z45	X46	Y46	Z46	X47	Y47	Z47	X48	Y48	Z48	X49	Y49	Z49	X50	Y50	Z50	
250	1.2500	559.682928	1395.217990	-77.812393	565.641385	1398.376192	-413.590954	541.503365	1451.071631	-243.441271	521.287331	1295.633079	-237.905895	636.755955	1147.301127	-15.463059	799.320958	886.162002	-72.955543	658.237574	1149.332460	-461.558797	801.573676	887.938008	-417.580468	-4.839042	1209.991805	-243.094786	165.340357	1176.423162	-387.404805	162.990828	1206.901890	-86.260626	179.794109	1121.427998	-353.656661	176.897665	1150.152197	-117.268599	27.769943	1252.111777	-192.699948	33.423271	1246.269194	-289.578737	75.006275	1120.449758	-34.877713	77.092722	1067.224105	-415.384297	209.609583	1027.565661	-29.221506	296.332805	1008.681063	-29.967610	360.189635	949.452368	-31.409575	312.913845	1039.330293	-45.176043	455.478336	873.667204	-52.089191	440.639014	868.195823	-163.572933	358.371198	788.920121	-26.273751	317.182611	711.486305	-49.216736	244.026083	666.278527	-56.642879	339.449183	698.794256	-82.136058	157.886612	586.934987	-70.226384	180.293840	604.005853	-157.467448	71.250625	579.347527	-114.873778	352.981999	498.628547	-117.025812	263.560574	489.437240	-43.489587	121.122922	937.285607	-434.283938	166.481140	862.464342	-430.632091	200.034805	872.262600	-417.380303	166.541691	773.362336	-424.518658	198.541674	652.059186	-400.116412	192.707094	628.600639	-300.144861	197.398063	237.385488	-400.864923	236.025992	269.235716	-332.312230	137.056329	215.187030	-362.842903	340.433895	146.927450	-423.005994	189.946861	526.005645	-429.038833	213.533454	445.064395	-413.055720	196.905207	358.142721	-415.529755	233.311872	448.932497	-378.813952	423.255747	173.516941	-354.354620	-139.067007	945.760571	-229.106485	18.682256	80.416164	-428.627869	18.990408	80.657621	-30.952691	
251	1.2550	559.673731	1395.185516	-77.786235	565.643961	1398.367284	-413.630483	541.503778	1451.079828	-243.479221	521.321035	1295.641261	-237.905597	636.746057	1147.291318	-15.494376	799.297762	886.155631	-72.964722	658.267248	1149.340978	-461.468772	801.589197	887.947702	-417.555039	-4.826972	1209.967376	-243.136298	165.361344	1176.390159	-387.422956	162.964219	1206.900630	-86.264889	179.819443	1121.404881	-353.688144	176.899541	1150.157905	-117.271771	27.768763	1252.104968	-192.710302	33.438114	1246.258462	-289.604298	74.994054	1120.463041	-34.893546	77.110334	1067.204368	-415.393407	209.613111	1027.611131	-29.201663	296.361679	1008.729417	-29.972725	360.203767	949.502474	-31.410023	312.913577	1039.394497	-45.149953	455.523380	873.773788	-52.087414	440.711596	868.279934	-163.545848	358.442914	788.990671	-26.281145	317.251441	711.534979	-49.220143	244.133906	666.316556	-56.629165	339.563740	698.863035	-82.083691	158.011437	586.961563	-70.197042	180.407948	604.008167	-157.448078	71.379375	579.346892	-114.883035	353.129828	498.705775	-117.033756	263.717986	489.462528	-43.494018	121.123586	937.274883	-434.281929	166.483152	862.444694	-430.604936	200.018711	872.234253	-417.343340	166.540096	773.337186	-424.492511	198.553466	652.055100	-400.102688	192.694220	628.593394	-300.142892	197.272632	237.366448	-400.843075	235.877304	269.206444	-332.289493	136.932064	215.185604	-362.850298	340.278280	146.884031	-422.998497	189.931672	525.988509	-429.017222	213.500202	445.035858	-413.022842	196.841361	358.146660	-415.516292	233.237255	448.874025	-378.774184	423.108185	173.479371	-354.358263	-139.067156	945.759607	-229.111723	18.682008	80.416305	-428.635772	19.099296	80.345961	-31.217615	
252	1.2600	559.673958	1395.188832	-77.784076	565.653899	1398.373182	-413.652833	541.512009	1451.101648	-243.535657	521.374762	1295.664172	-237.936369	636.697260	1147.260304	-15.495227	799.312699	886.161192	-72.944067	658.290364	1149.314060	-461.342608	801.619393	887.928374	-417.552832	-4.825429	1209.985972	-243.145107	165.381245	1176.348754	-387.438780	162.981187	1206.881948	-86.278789	179.818727	1121.393918	-353.685618	176.901483	1150.151071	-117.271503	27.777294	1252.114772	-192.732721	33.455934	1246.242999	-289.639794	74.987846	1120.476590	-34.880357	77.117547	1067.187898	-415.392329	209.627524	1027.643984	-29.213242	296.371278	1008.784682	-29.943054	360.238300	949.564891	-31.399138	312.927702	1039.477710	-45.154155	455.578127	873.885033	-52.076538	440.755201	868.394144	-163.544369	358.497027	789.069733	-26.258786	317.340064	711.601406	-49.224531	244.255894	666.341811	-56.630658	339.658381	698.951781	-82.103505	158.130077	586.990837	-70.166318	180.524168	604.017620	-157.455585	71.488044	579.345931	-114.881384	353.264718	498.767783	-117.027531	263.864424	489.523596	-43.510448	121.139020	937.264876	-434.268406	166.487925	862.420810	-430.587076	200.027196	872.221164	-417.299859	166.549675	773.313747	-424.446086	198.546894	652.031192	-400.087504	192.690985	628.581780	-300.138143	197.145214	237.373291	-400.847187	235.805023	269.188975	-332.304238	136.807072	215.190024	-362.845859	340.133389	146.809061	-422.960733	189.938875	525.929513	-428.967953	213.456617	445.017470	-413.017998	196.778175	358.132188	-415.520285	233.197407	448.878073	-378.771970	422.976409	173.414113	-354.341237	-139.055613	945.761570	-229.110717	18.683884	80.409713	-428.629124	19.098245	80.353886	-31.216222	
253	1.2650	559.676001	1395.148528	-77.772963	565.650675	1398.355790	-413.645925	541.502391	1451.122110	-243.540662	521.392986	1295.650536	-237.919097	636.696600	1147.253625	-15.491512	799.287813	886.159712	-72.952350	658.292390	1149.298965	-461.258291	801.617661	887.931765	-417.529202	-4.810543	1209.974630	-243.170541	165.404664	1176.299483	-387.460371	162.998634	1206.888579	-86.301095	179.845051	1121.371515	-353.679308	176.917186	1150.157426	-117.283997	27.776120	1252.107963	-192.743059	33.437138	1246.257214	-289.633846	74.978705	1120.517514	-34.903555	77.120535	1067.185439	-415.407567	209.629063	1027.690113	-29.201392	296.392842	1008.835723	-29.961319	360.259480	949.618233	-31.426072	312.930541	1039.547132	-45.131535	455.618634	873.976199	-52.078754	440.801155	868.490882	-163.518035	358.561127	789.137116	-26.265433	317.434396	711.651594	-49.242656	244.359972	666.381102	-56.625730	339.779470	699.047170	-82.097810	158.397482	586.635158	-70.508264	180.631768	604.014369	-157.437301	71.606067	579.337835	-114.872328	353.408634	498.824722	-117.021666	263.995117	489.571900	-43.511046	121.152329	937.249952	-434.265112	166.496980	862.412138	-430.574385	200.049782	872.219883	-417.279780	166.573684	773.313783	-424.428886	198.571353	652.033909	-400.070734	192.693662	628.565733	-300.117536	197.023744	237.347661	-400.831797	235.703758	269.214204	-332.288614	136.677735	215.197917	-362.842007	339.971842	146.774258	-422.955426	189.888768	525.974473	-429.010387	213.401617	444.999665	-412.996146	196.707873	358.119649	-415.529925	233.133685	448.805411	-378.745352	422.847105	173.348455	-354.319556	-139.053330	945.758472	-229.102462	18.682260	80.413342	-428.630316	19.106407	80.352849	-31.221100	
254	1.2700	559.676000	1395.148650	-77.772987	565.677441	1398.366081	-413.681712	541.506415	1451.148018	-243.590704	521.458137	1295.738782	-237.946940	636.669610	1147.234909	-15.482463	799.277852	886.160960	-72.956011	658.273879	1149.285717	-461.172243	801.650397	887.918542	-417.546851	-4.815878	1209.974345	-243.188275	165.424580	1176.258200	-387.476196	163.000151	1206.886782	-86.323995	179.863121	1121.346235	-353.680592	176.922257	1150.167087	-117.295457	27.784086	1252.116297	-192.766110	33.448137	1246.257316	-289.675882	74.975870	1120.542121	-34.895853	77.131670	1067.178770	-415.415906	209.653125	1027.732817	-29.203601	296.406985	1008.896603	-29.958234	360.281964	949.699314	-31.416533	312.930728	1039.595319	-45.134906	455.670077	874.082100	-52.091417	440.858090	868.593088	-163.527712	358.629946	789.213700	-26.260398	317.509654	711.717080	-49.229850	244.461952	666.428605	-56.597248	339.872212	699.112251	-82.075969	158.492268	586.653310	-70.525467	180.760442	604.038155	-157.452603	71.727095	579.345643	-114.872833	353.549080	498.883174	-117.036999	264.156513	489.595673	-43.517729	121.170305	937.247600	-434.262088	166.531721	862.413660	-430.541538	200.060928	872.222380	-417.267110	166.601026	773.312141	-424.375015	198.574478	652.026550	-400.054581	192.691887	628.563407	-300.098402	196.885663	237.364880	-400.844281	235.671970	269.230511	-332.350621	136.547265	215.205964	-362.853061	339.819759	146.724002	-422.973058	189.867936	525.921738	-428.957294	213.342834	444.980648	-412.973353	196.627283	358.118206	-415.514251	233.063880	448.837488	-378.764996	422.703076	173.292471	-354.331158	-139.060826	945.758557	-229.106481	18.684052	80.417378	-428.624436	19.011689	80.629501	-30.964145	
